<svg width="250" height="19" viewBox="0 0 250 19" fill="none" xmlns="http://www.w3.org/2000/svg">
  <!-- IronBee icon -->
  <path d="M16.305 6.13856V1.08616C16.305 0.543984 15.8652 0.111816 15.3311 0.111816H10.281C9.48777 0.111816 8.70238 0.268962 7.97197 0.567549C7.24155 0.873994 6.57397 1.31402 6.01634 1.87977L5.97707 1.91906C5.2388 2.66552 4.71259 3.59271 4.44556 4.61419C4.92465 4.48847 5.41942 4.42561 5.91422 4.41775C7.23368 4.40204 8.5296 4.82635 9.58203 5.61996C10.5324 6.32715 11.2549 7.30148 11.6476 8.42511C12.056 9.56446 12.1031 10.806 11.7968 11.9767C12.81 11.7096 13.7446 11.1831 14.4907 10.4445L14.53 10.4052C15.0876 9.84733 15.5353 9.17944 15.8416 8.44869C16.1479 7.71793 16.2971 6.93218 16.2971 6.13856H16.305Z" fill="#18E299"/>
  <path d="M4.29481 6.05311C4.30264 4.50318 4.92076 3.01587 6.00834 1.9043L1.80665 6.1079C1.791 6.12356 1.77534 6.13139 1.7597 6.14704C0.734705 7.16468 0.116597 8.52675 0.0148805 9.96709C-0.0790116 11.3135 0.273076 12.6442 1.02421 13.7558C1.09586 13.8618 1.29026 13.8967 1.39981 13.795L3.97401 11.2274C4.77992 10.4211 5.0303 9.22343 4.64691 8.151C4.40436 7.48562 4.28699 6.77328 4.29481 6.05311Z" fill="#0C8C5E"/>
  <path d="M14.5056 10.4058C13.6997 11.1964 12.6904 11.7443 11.5949 11.987C10.4917 12.2297 9.34938 12.1592 8.28526 11.7835C8.27742 11.7835 8.2696 11.7835 8.2696 11.7835C7.19766 11.3999 6.00056 11.6504 5.19465 12.4489L2.62041 15.0164C2.51087 15.126 2.52651 15.3061 2.65953 15.3922C3.77059 16.1358 5.10076 16.4959 6.44654 16.402C7.88622 16.3002 9.23982 15.6818 10.2648 14.6563L10.3039 14.6172L14.5056 10.4136V10.4058Z" fill="#0C8C5E"/>
  <!-- IronBee wordmark -->
  <text x="22" y="14" font-family="system-ui, -apple-system, BlinkMacSystemFont, 'Segoe UI', sans-serif" font-size="13" font-weight="500" fill="white">IronBee Product Guide</text>
</svg>
